HIERARCHY
ROOT Spine
{
    OFFSET 0.0 0.0 -0.0
    CHANNELS 6 Xposition Yposition Zposition Zrotation Xrotation Yrotation
    JOINT ShoulderCenter
    {
        OFFSET 0.0 32.490726470947266 0.0
        CHANNELS 3 Zrotation Xrotation Yrotation
        JOINT LeftShoulder
        {
            OFFSET 21.936573028564453 0.0 0.0
            CHANNELS 3 Zrotation Xrotation Yrotation
            JOINT LeftElbow
            {
                OFFSET 28.045602798461914 0.0 0.0
                CHANNELS 3 Zrotation Xrotation Yrotation
                JOINT LeftHand
                {
                    OFFSET 31.32959747314453 0.0 0.0
                    CHANNELS 3 Zrotation Xrotation Yrotation
                    End Site
                    {
                        OFFSET 12.531839370727539 0.0 0.0
                    }
                }
            }
        }
        JOINT RightShoulder
        {
            OFFSET -21.936573028564453 0.0 0.0
            CHANNELS 3 Zrotation Xrotation Yrotation
            JOINT RightElbow
            {
                OFFSET -28.045602798461914 0.0 0.0
                CHANNELS 3 Zrotation Xrotation Yrotation
                JOINT RightHand
                {
                    OFFSET -31.32959747314453 0.0 0.0
                    CHANNELS 3 Zrotation Xrotation Yrotation
                    End Site
                    {
                        OFFSET -12.531839370727539 0.0 0.0
                    }
                }
            }
        }
        End Site
        {
            OFFSET 0.0 12.996288299560547 0.0
        }
    }
    JOINT LeftHip
    {
        OFFSET 14.255296877409608 -14.255296877409608 0.0
        CHANNELS 3 Zrotation Xrotation Yrotation
        JOINT LeftKnee
        {
            OFFSET 0.0 -38.6229362487793 0.0
            CHANNELS 3 Zrotation Xrotation Yrotation
            JOINT LeftFoot
            {
                OFFSET 0.0 -40.78139114379883 0.0
                CHANNELS 3 Zrotation Xrotation Yrotation
                End Site
                {
                    OFFSET 0.0 0.0 16.312557220458984
                }
            }
        }
    }
    JOINT RightHip
    {
        OFFSET -14.255296877409608 -14.255296877409608 0.0
        CHANNELS 3 Zrotation Xrotation Yrotation
        JOINT RightKnee
        {
            OFFSET 0.0 -38.6229362487793 0.0
            CHANNELS 3 Zrotation Xrotation Yrotation
            JOINT RightFoot
            {
                OFFSET 0.0 -40.78139114379883 0.0
                CHANNELS 3 Zrotation Xrotation Yrotation
                End Site
                {
                    OFFSET 0.0 0.0 16.312557220458984
                }
            }
        }
    }
}
MOTION
Frames: 13
Frame Time: 0.03333333333333333
-30.100000381469727 5.600000381469727 12.700000762939453 -4.532262152922273 1.9147805912886602 104.57389348714845 -2.9893270413171855e-07 -2.27691209724013e-07 1.8703740059366567 90.30211499675261 5.501130574216564 177.9250254584439 -1.0146887111962383e-07 -3.773931789259742e-07 34.25430185412691 -6.361109362927032e-15 6.3611093629270335e-15 -6.361109362927032e-15 -91.13427662251185 32.07064002197842 -179.285742836809 -1.0473805606814788e-06 2.382529165241958e-07 -20.231118376835084 3.531125038440127e-31 -6.3611093629270335e-15 6.3611093629270335e-15 12.429016497848119 -13.395731027247846 -41.63738094905663 -16.439922458614035 13.004997678472222 -20.843031398240484 -3.586298867165754e-32 -1.5902773407317588e-15 -2.584200678689108e-15 -2.396834193571015 -7.031998281442014 45.8012607162036 5.484565021200145 10.738683177097169 20.290398551790847 2.9817700138720465e-16 -7.758819664541295e-34 -2.9817700138720465e-16
-29.499998092651367 5.900000095367432 12.399999618530273 -4.358622463536394 2.263124328590344 103.84584916290724 1.1263213577640069e-08 6.44345504428523e-08 1.6167229875721592 90.00203676344657 6.43100408566916 177.21039521086183 -4.39493006527016e-06 -1.0105887909795874e-06 34.17954469387569 0.0 0.0 6.3611093629270335e-15 -91.84296635198977 30.268695091138106 -178.70399422047564 -8.896273701647655e-07 -2.6998882853574864e-06 -20.561621577836526 0.0 0.0 6.3611093629270335e-15 11.793028799636893 -13.034451440557868 -41.097789404181654 -8.696053172194222 9.867771926689992 -21.885010521655225 0.0 0.0 -2.1866313435061676e-15 -2.275847511387393 -5.487688067625415 47.32133766012103 3.902923724761304 10.059427844051829 19.56151959592273 -5.963540027744093e-16 -7.951386703658791e-16 1.1927080055488186e-15
-28.899999618530273 6.199999809265137 11.59999942779541 -4.53225905505122 2.783983833109875 102.63403302180966 2.8945276422535117e-07 -6.754390756903844e-07 1.5827723479026867 89.74238707627842 6.517793819723606 176.88972440646543 -9.213989540542369e-07 2.927103094503495e-06 32.96701365348885 -6.361109362927035e-15 0.0 0.0 -92.55204968975185 28.238477649860588 -178.7479963505875 -1.8438169190312698e-06 -2.913165684697198e-06 -20.900339404296734 3.1805546814635168e-15 -1.7655625192200634e-31 -6.3611093629270335e-15 10.427312620087378 -12.770750746916237 -40.07371730818801 -1.1588173805996336 6.620160798972526 -22.26691658383173 1.5902773407317588e-15 2.782985346280577e-15 -8.448348372637467e-15 -3.001856927128112 -4.126640534054091 48.550267478379936 2.168214288864353 8.235712578525437 16.791705808507054 -9.93923337957349e-17 -4.310455369189608e-35 4.969616689786745e-17
-28.099998474121094 6.199999809265137 10.40000057220459 -4.184911987999465 2.785267009064998 102.05838457905617 2.0024231273992907e-07 9.822559252518486e-08 0.8393469899170393 89.34260081311918 8.730544408105521 176.4067440723286 -7.51029355369108e-06 1.7670538643603178e-06 30.88987378827694 0.0 0.0 -6.3611093629270335e-15 -92.64718223181225 29.19349546801707 -179.27594883659432 1.4685875925640372e-06 2.454327538687353e-07 -20.66008522945815 -3.1805546814635168e-15 -1.7655625192200634e-31 6.3611093629270335e-15 9.785357524553113 -13.52431320711896 -35.9773144822837 1.2939604495787074 4.754128091233512 -21.23850808207148 0.0 0.0 -1.5902773407317582e-15 -3.461420573212928 -2.1491680476490966 49.60422352630063 0.6909672625469847 6.666136305112116 13.831180895153633 8.945310041616142e-16 1.1638229496811942e-32 1.4908850069360238e-15
-27.5 6.0 8.800000190734863 -4.184918319497765 2.263636086820137 100.48652837582078 -5.1051206765314224e-08 1.2533798142074358e-09 0.6834204676717367 88.922100676739 12.352010356578816 176.97943027441707 1.821024615039543e-06 4.362894062179791e-06 28.316893983210182 -6.3611093629270335e-15 6.3611093629270335e-15 -6.3611093629270335e-15 -92.22077500575107 28.002743252828918 179.7070292899014 2.8811381197489628e-06 1.256857141453244e-06 -21.18127179099167 3.1805546814635168e-15 0.0 0.0 9.795558175253165 -13.941207529995921 -36.27107655004938 0.2744447741239507 5.35139507957786 -22.15778431514721 -1.5902773407317584e-15 -1.192708005548819e-15 6.7586786981099735e-15 -3.6163774040297705 -1.2755987058675284 51.23997938137922 -0.13892142333840232 5.96735739067083 12.349066441075028 9.93923337957349e-16 -9.914047349136099e-33 -1.1430118386509513e-15
-26.600000381469727 5.900000095367432 6.599999904632568 -3.9989759070489366 1.7367411039754128 98.14336472961816 -4.2741988913195436e-07 -3.7635519112746124e-07 1.5754706503331097 88.87089761731399 13.095670277405324 176.8135187822746 -3.157910242144404e-06 1.1659794851031044e-06 27.071110417611738 -5.29668755766019e-31 9.54166404439055e-15 6.3611093629270335e-15 -92.35245471554913 25.687156686355255 179.8802797237807 1.463525564302902e-06 -1.8644778333812094e-06 -22.330521785806976 -7.062250076880254e-31 1.2722218725854067e-14 6.3611093629270335e-15 9.854128529835869 -13.309878417273351 -38.13712071242274 -0.7897474919821534 6.391389590200154 -24.380839247578447 0.0 0.0 -1.292100339344554e-15 -4.103077529523068 -0.39273728829364823 52.245978309623055 -0.7741973875827758 5.558090242919923 11.696226153067988 -1.987846675914698e-16 -3.4483642953516864e-34 1.987846675914698e-16
-25.700000762939453 6.0 4.199999809265137 -3.998975595824439 0.6948754318842738 95.94211336864059 -5.348185073567814e-08 -9.04035171236387e-08 2.7429213004176125 89.477923747929 12.090930797527909 177.19491197714098 4.1635742863846965e-06 -1.1275794496263759e-06 25.872385279245652 0.0 0.0 0.0 -92.31948694147974 22.793276227453525 -179.32403795883772 -2.6046705195771896e-06 -1.3295343265359772e-06 -24.613108549957627 3.531125038440127e-31 -6.361109362927033e-15 6.361109362927033e-15 9.705704837050536 -12.87081333830123 -36.59983322747663 -1.1914244237294829 7.41720294035337 -24.636247398419975 0.0 0.0 -6.957463365701445e-16 -4.343707978651948 0.0940577931529725 55.294358064408506 -1.0637959293780272 5.572380853001516 12.156582536732381 0.0 0.0 3.975693351829395e-16
-25.0 6.0 1.5 -4.864513422392803 -0.34704339389971633 93.45921737133976 -3.1718232277796434e-07 -4.142903523370424e-07 4.126824854543947 90.41116041839011 6.612541786499397 177.25385643069887 -4.6386946349810115e-06 -1.9239335324904202e-06 26.809878171776447 -1.7655625192200634e-31 -3.1805546814635168e-15 -6.3611093629270335e-15 -92.76726343576208 18.23077465462073 -178.7478976640889 -2.3538116591339945e-06 -6.088490017229516e-06 -27.937967961090774 0.0 0.0 0.0 9.625518913000896 -12.991013321562967 -37.78110868180745 -1.998809329386973 7.884648973672965 -23.06115809140475 0.0 0.0 -8.945310041616142e-16 -5.165193391764853 -0.7458587805914043 57.88726049881218 -0.9224439939329641 5.23810027140869 11.772065236053303 -3.9756933518293955e-16 1.5902773407317584e-15 -3.975693351829396e-15
-24.399999618530273 6.199999809265137 -1.100000023841858 -5.91805980726365 -1.7369798626779593 90.99373508339896 -4.7520355906821443e-07 5.008170247660761e-08 5.209048454690036 92.36616841504676 -0.8595255568431163 177.77443948822534 -8.130824915047959e-07 6.138105440496648e-06 28.236248378704783 -6.3611093629270335e-15 -3.1805546814635164e-15 -6.3611093629270335e-15 -92.7604843153657 15.64504704058478 -178.83689575039742 -1.7193245288547986e-06 -5.524868928524545e-07 -29.870184655132157 3.1805546814635168e-15 -3.531125038440127e-31 -1.2722218725854067e-14 9.747817700128005 -13.029108983012781 -38.369376266572345 -1.904315979511155 7.9218102320423265 -21.733272588233266 3.975693351829396e-16 1.6896696745274934e-15 8.448348372637467e-16 -5.923269330561564 -3.3424099561916387 59.18261664678693 1.58813273135655 5.260429475731444 11.887139081729586 3.975693351829396e-16 -1.6207312188152926e-32 -4.67143968839954e-15
-23.80000114440918 6.400000095367432 -3.4000000953674316 -6.801318128115386 -2.781547933277041 87.96318664751367 -1.943332472003278e-07 2.578752143122631e-07 5.836847001380551 94.00370188335187 -4.172338876980369 178.04117836062753 -1.087831338445331e-06 -3.3230303487140873e-07 29.345408396983302 3.1805546814635164e-15 -6.3611093629270335e-15 -6.3611093629270335e-15 -92.64858720056701 14.070516366971209 -179.41684308563813 2.5520853660997353e-06 -1.916366551817212e-06 -31.247164973110568 6.361109362927033e-15 3.531125038440127e-31 6.361109362927033e-15 9.662109967978278 -12.405906497501865 -38.94922349936244 -0.7928038352890996 7.8446459693465975 -21.858363437242467 -1.2069275033730902e-32 1.5902773407317584e-15 8.696829207126803e-16 -6.916610152434994 -7.857727315740283 55.18018481242985 6.522247579790542 6.719672365860424 14.710407205515654 1.5902773407317588e-15 -1.793149433582877e-32 -1.292100339344554e-15
-23.399999618530273 6.700000286102295 -5.200000286102295 -8.203903370149778 -3.4748399702481296 88.3536741239682 1.7947739730231993e-07 2.6366743978192365e-07 3.622134532646873 95.30044490106926 -4.138162819864673 179.5625338068814 7.54349155108665e-07 4.431765530926427e-06 29.506938988932554 6.3611093629270335e-15 -6.3611093629270335e-15 3.531125038440127e-31 -92.553468532847 13.240967690768636 -179.6304482704782 -3.383813278138265e-06 -5.73391764063188e-06 -33.400073492708664 0.0 0.0 0.0 9.562311004718056 -13.290560272475885 -40.79852154534898 -0.7846703587183246 6.848063514386295 -19.325436657219814 0.0 0.0 1.5902773407317584e-15 -8.16846683663011 -12.203386225277724 50.01594927217134 11.53949113467372 9.386275219512324 18.40731734279378 0.0 0.0 1.1927080055488186e-15
-22.899999618530273 6.899999618530273 -6.599999904632568 -9.09027552384312 -3.824084328689785 86.87437890338705 -5.57333749710259e-07 -7.734389348437498e-07 3.6784516736948825 96.27786386210181 -1.1569971732070714 -179.23948926499824 8.974384285400262e-07 -1.1168732726191358e-07 29.67271613207189 3.1805546814635168e-15 -6.361109362927033e-15 3.1805546814635168e-15 -93.11638283024712 11.86602917319526 -179.11247054834956 -3.100048959901434e-06 -1.3062095321301332e-06 -35.47886019674985 0.0 0.0 6.361109362927035e-15 9.259396500990892 -13.690772574346896 -39.020471020879455 -0.2708157828438499 7.090215494078263 -20.69803698402708 -1.9878466759146975e-16 1.6399735076296255e-15 -1.1927080055488186e-15 -9.425514532780518 -16.791406357939394 37.318731010599556 13.803820562014074 14.842275595696435 29.665843565751608 7.951386703658791e-16 -4.138037154422024e-33 -5.963540027744093e-16
-22.5 6.899999618530273 -7.199999809265137 -10.351671134628132 -4.180544405578907 86.5304380694258 6.833620346076573e-07 4.3050100072926993e-07 3.300248949329586 97.11775893310724 3.001941723051535 -177.4534167169978 -1.5637323567498404e-06 -3.1694156864138934e-06 29.104950790504624 0.0 6.3611093629270335e-15 0.0 -92.93815421723106 11.663042784570697 -178.2987365619244 -9.655862858465173e-07 -1.9318912138730228e-06 -37.409613611274736 3.1805546814635164e-15 -6.361109362927032e-15 6.361109362927032e-15 9.676917394461858 -15.168854035626868 -36.22055841026276 -0.5298957238114689 7.371824481973291 -22.125973301959633 1.987846675914698e-16 1.6399735076296259e-15 -3.975693351829396e-16 -9.689267466254037 -19.603422873488828 25.61490432889371 9.829241882259808 16.627463394985963 40.41357094815727 7.951386703658792e-16 -1.5902773407317584e-15 9.93923337957349e-16
